<?xml version="1.0" encoding="UTF-8" standalone="no"?>
<!DOCTYPE svg PUBLIC "-//W3C//DTD SVG 1.1//EN" "http://www.w3.org/Graphics/SVG/1.1/DTD/svg11.dtd">
<svg width="100%" height="100%" viewBox="0 0 2100 2100" version="1.1" xmlns="http://www.w3.org/2000/svg" xmlns:xlink="http://www.w3.org/1999/xlink" xml:space="preserve" xmlns:serif="http://www.serif.com/" style="fill-rule:evenodd;clip-rule:evenodd;stroke-linejoin:round;stroke-miterlimit:2;">
    <g transform="matrix(2.08333,0,0,2.08333,-2717.71,0)">
        <g id="dark-theme-logo" transform="matrix(0.933333,0,0,0.933333,1304.5,0)">
            <rect x="0" y="0" width="1080" height="1080" style="fill:rgb(240,241,239);"/>
            <g transform="matrix(1.71362,0,0,1.71362,-195.325,-419.671)">
                <g transform="matrix(301.131,0,0,301.131,163.75,506.457)">
                    <path d="M0.099,-0.001L0.099,-0.697L0.138,-0.697L0.624,-0.224L0.624,-0.697L0.661,-0.697L0.661,-0.001L0.099,-0.001Z" style="fill:rgb(52,66,76);fill-rule:nonzero;"/>
                </g>
            </g>
            <g transform="matrix(1.92322,0,0,1.92322,-252.111,24.769)">
                <g transform="matrix(301.131,0,0,301.131,163.75,506.457)">
                    <path d="M0.419,-0.696C0.463,-0.696 0.498,-0.689 0.524,-0.676C0.555,-0.66 0.58,-0.638 0.597,-0.61C0.614,-0.582 0.622,-0.551 0.622,-0.516C0.622,-0.483 0.613,-0.453 0.596,-0.426C0.579,-0.398 0.555,-0.376 0.525,-0.36C0.561,-0.347 0.591,-0.325 0.616,-0.294C0.641,-0.263 0.653,-0.227 0.653,-0.188C0.653,-0.153 0.644,-0.122 0.627,-0.093C0.609,-0.064 0.585,-0.041 0.556,-0.024C0.541,-0.016 0.525,-0.01 0.507,-0.006C0.489,-0.002 0.465,-0 0.435,-0L0.127,-0L0.127,-0.696L0.419,-0.696Z" style="fill:rgb(52,66,76);fill-rule:nonzero;"/>
                </g>
            </g>
            <g transform="matrix(1.92322,0,0,1.92322,317.594,-468.776)">
                <g transform="matrix(301.131,0,0,301.131,163.75,506.457)">
                    <path d="M0.564,-0.691L0.597,-0.75L0.608,-0.744L0.381,-0.355C0.48,-0.34 0.55,-0.312 0.591,-0.269C0.632,-0.226 0.647,-0.178 0.636,-0.125C0.626,-0.076 0.598,-0.034 0.551,0.001C0.503,0.036 0.448,0.055 0.383,0.058C0.318,0.061 0.249,0.039 0.178,-0.008L0.142,0.06L0.131,0.053L0.17,-0.013L0.361,-0.341C0.263,-0.356 0.194,-0.384 0.153,-0.427C0.112,-0.47 0.096,-0.518 0.107,-0.571C0.116,-0.62 0.144,-0.663 0.191,-0.7C0.238,-0.736 0.294,-0.756 0.359,-0.759C0.424,-0.762 0.492,-0.74 0.564,-0.691Z" style="fill:rgb(52,66,76);fill-rule:nonzero;"/>
                </g>
            </g>
        </g>
    </g>
</svg>
