<?xml version="1.0" encoding="UTF-8" standalone="no"?>
<!DOCTYPE svg PUBLIC "-//W3C//DTD SVG 1.1//EN" "http://www.w3.org/Graphics/SVG/1.1/DTD/svg11.dtd">
<svg width="100%" height="100%" viewBox="0 0 2100 2100" version="1.1" xmlns="http://www.w3.org/2000/svg" xmlns:xlink="http://www.w3.org/1999/xlink" xml:space="preserve" xmlns:serif="http://www.serif.com/" style="fill-rule:evenodd;clip-rule:evenodd;stroke-linejoin:round;stroke-miterlimit:2;">
    <g transform="matrix(2.08333,0,0,2.08333,-2717.71,0)">
        <g id="dark-theme-logo" transform="matrix(0.933333,0,0,0.933333,1304.5,0)">
            <rect x="0" y="0" width="1080" height="1080" style="fill:rgb(240,241,239);"/>
            <g transform="matrix(1.71362,0,0,1.71362,-195.325,-419.671)">
                <g transform="matrix(301.131,0,0,301.131,386.587,506.457)">
                </g>
                <text x="163.75px" y="506.457px" style="font-family:'MajorMonoDisplay-Regular', 'Major Mono Display', monospace;font-size:301.131px;fill:rgb(52,66,76);stroke:rgb(52,66,76);stroke-width:0.63px;">N</text>
            </g>
            <g transform="matrix(1.92322,0,0,1.92322,-252.111,24.769)">
                <g transform="matrix(301.131,0,0,301.131,386.587,506.457)">
                </g>
                <text x="163.75px" y="506.457px" style="font-family:'MajorMonoDisplay-Regular', 'Major Mono Display', monospace;font-size:301.131px;fill:rgb(52,66,76);stroke:rgb(52,66,76);stroke-width:0.56px;">B</text>
            </g>
            <g transform="matrix(1.92322,0,0,1.92322,317.594,-468.776)">
                <g transform="matrix(301.131,0,0,301.131,386.587,506.457)">
                </g>
                <text x="163.75px" y="506.457px" style="font-family:'MajorMonoDisplayNSBRegular', 'Major Mono Display NSB';font-size:301.131px;fill:rgb(52,66,76);stroke:rgb(52,66,76);stroke-width:0.56px;">S</text>
            </g>
        </g>
    </g>
</svg>
